PathFileType	4	(X/Y/Z)	Demo_0-100.trc
DataRate	CameraRate	NumFrames	NumMarkers	Units	OrigDataRate	OrigDataStartFrame	OrigNumFrames
60	60	7	21	m	60	37	100
Frame#	Time	RHip			RKnee			RAnkle			RBigToe			RSmallToe			RHeel			LHip			LKnee			LAnkle			LBigToe			LSmallToe			LHeel			Neck			Head			Nose			RShoulder			RElbow			RWrist			LShoulder			LElbow			LWrist		
		X1	Y1	Z1	X2	Y2	Z2	X3	Y3	Z3	X4	Y4	Z4	X5	Y5	Z5	X6	Y6	Z6	X7	Y7	Z7	X8	Y8	Z8	X9	Y9	Z9	X10	Y10	Z10	X11	Y11	Z11	X12	Y12	Z12	X13	Y13	Z13	X14	Y14	Z14	X15	Y15	Z15	X16	Y16	Z16	X17	Y17	Z17	X18	Y18	Z18	X19	Y19	Z19	X20	Y20	Z20	X21	Y21	Z21
38	0.6333333333333333	-0.20111917818619143	0.9648547421223312	-1.098073192327251	-0.5000607436194606	0.6858192792879587	-0.9886400901457205	-0.6839230401467209	0.3470494736866831	-1.0595207200233414	-0.7385255068565643	0.2862449645709297	-0.9303753622565304	-0.7631201965104959	0.28774886816485135	-0.9818429333187442	-0.6938600229248932	0.3082971233628505	-1.1027118018383386	-0.01163370162126773	0.8619590882005296	-1.1025532679714818	-0.06586492844355699	0.5086687205493596	-0.9144287628204908	-0.016363130438540076	0.14331628870328747	-1.1555218637527425	-0.008571155343965204	0.07491029511106324	-1.0005657725717363	0.020372513167673308	0.07796314398265643	-1.0369080040411593	-0.008901278834382624	0.11379018410994945	-1.2097903693991547	0.22958333074919346	1.3341915654115784	-1.0607308710433236	0.3833489598897378	1.5248616822042398	-0.9199532347153089	0.3104957928997198	1.3914937996436325	-0.9020013694791726	0.07211880129099611	1.405356534291781	-1.1140151313537683	-0.18207236350055894	1.4506543673663916	-1.1929333257286183	-0.24754589724652865	1.6086624588085665	-1.0127248240664524	0.33381280965655313	1.2032670809685266	-1.0880698010089447	0.36499503116565807	0.904182513436031	-1.0993397704041783	0.3479445619955723	0.6606510489006426	-0.9962424053277072
39	0.65	-0.20150552623664478	0.9667323307785293	-1.0898697381111613	-0.5066285136322691	0.6934199816310116	-0.9759027465419704	-0.7058168905056074	0.3613831511093947	-1.0421695862707354	-0.7625035243128575	0.3034248049155575	-0.9108323479789306	-0.7829157776361624	0.30055363181707984	-0.9673128569939862	-0.7160038517241141	0.321954714393131	-1.0861074710217538	-0.018648513454163157	0.8619355576425439	-1.1054850031603345	-0.06763950389516885	0.5089464648402305	-0.9098645516089406	-0.016932536105683994	0.14415918306108508	-1.1543914207350265	-0.009091156062943672	0.07586214926487313	-0.998843726279773	0.02020877245570565	0.07868568141642947	-1.0358479937067229	-0.010076144155817398	0.11555862402347647	-1.2080834742400979	0.23236462584609346	1.330154387920141	-1.0535369434099633	0.389730160691158	1.5171546262425863	-0.9234953919507105	0.31570592253536545	1.3872241358099813	-0.8973974043530033	0.07365500768409067	1.403459799034593	-1.1056744929608986	-0.17958733004559457	1.4565938318187532	-1.18010542488522	-0.23376095793520513	1.6185835885649364	-0.9983708282393211	0.3301572732751423	1.1988697249211164	-1.0953854198261972	0.3680275804888163	0.899881000038599	-1.099238087415205	0.35383578442191355	0.6547532401195125	-0.9948713187105063
40	0.6666666666666666	-0.20121115035750659	0.9697776654358897	-1.0804006412322429	-0.5120268266223105	0.7014151294522535	-0.9623301655884029	-0.7269187204500313	0.375946584395091	-1.0240960520202835	-0.7833094476747645	0.3202595298076533	-0.8892450746994256	-0.7999984623665606	0.3131203930810952	-0.9524530110185196	-0.7365182205815967	0.33714657410806087	-1.0691035443737154	-0.025918337457981493	0.8619747181488099	-1.1089678402504852	-0.06861918206398239	0.509268429202067	-0.90437766671007	-0.017303552842409992	0.14466445754583732	-1.15292522066733	-0.009411411133121342	0.07703881458386917	-0.997101645805561	0.020254942718922017	0.07965753606756415	-1.0344363471831797	-0.011210742613959252	0.11661044517344839	-1.205615211587587	0.23510648485031393	1.3266094446779562	-1.0440896591851512	0.39616116082888764	1.5107138883361737	-0.9259895909693117	0.3199582934640874	1.3829525526004054	-0.8914572740216736	0.07498712697019258	1.4017445737751553	-1.0957559544243338	-0.1770744846483911	1.4625081576798942	-1.165721755314301	-0.21965562010933914	1.6273581196844007	-0.982615592569864	0.32494254988536575	1.1941480177141612	-1.1072300523163559	0.3703656552698784	0.8961994597699534	-1.0988248059997914	0.36043939269016345	0.649882655771482	-0.9936192047997711
41	0.6833333333333333	-0.20183155623176646	0.973177138419816	-1.073139568769478	-0.5166726348492584	0.7096606450987852	-0.9487511509489674	-0.746617695410997	0.39036299554599824	-1.0061451713112228	-0.8007412131177057	0.3373255046272122	-0.8658755661469546	-0.8147867388743656	0.3258249474665917	-0.9378675757908395	-0.7554646037542648	0.35357439943159485	-1.0520683636308332	-0.03281875115681816	0.8621177213491056	-1.1118268516446763	-0.06897485044167515	0.5095632153859152	-0.8995537528694287	-0.01740549195751382	0.14473220283369878	-1.1516306033733446	-0.00939866487536629	0.0780438378077293	-0.9958029548544151	0.020454615886796635	0.08040789693374766	-1.0333339116143734	-0.01211768611209994	0.11669960869777118	-1.2031590726463979	0.2379527761782405	1.3237582200481972	-1.0319829990668385	0.40256315515285596	1.5058466438897697	-0.9253945723631943	0.3231773007817511	1.3783532184186091	-0.884098269721579	0.07668807340677193	1.4003906667780468	-1.0846398678785494	-0.1746677228702662	1.4680559497602748	-1.1507585300559509	-0.20554465608068592	1.6348635445394273	-0.9655026529224555	0.3195785143193503	1.1895849125027453	-1.1188701466010733	0.3721627266057913	0.8930904738308519	-1.0980302826486987	0.3671389619129867	0.6458515604534428	-0.9928596380252186
42	0.7	-0.20436134039324627	0.976397746986924	-1.0709454139172334	-0.5211100196890694	0.7179394857542865	-0.9355638684979835	-0.7642413837513629	0.40421665889331454	-0.9892373696678954	-0.8153601724325722	0.35446111940072544	-0.8424688539902795	-0.8278833499051296	0.3391167759820271	-0.9236231744907933	-0.772989690696248	0.3703865040768338	-1.0354967510373512	-0.03885338041543126	0.8625350782732798	-1.1133028927714326	-0.0689271448836207	0.5096526962695749	-0.8963101869418416	-0.017069259052343938	0.14425287635281633	-1.1508104480008083	-0.00894288883679054	0.0786569489477124	-0.9953836346713245	0.020967359280330652	0.08060240770805707	-1.032846820244387	-0.012474756523478615	0.11589822127687918	-1.2014967341354879	0.24101139448775888	1.3216487036323397	-1.01768291040783	0.40865162225444857	1.5025023811824931	-0.9201901930631372	0.3252692639140999	1.37353036757747	-0.875259566587685	0.07901466694344539	1.3993186660426185	-1.073701517115843	-0.1723372846015889	1.4731578706406216	-1.1358083615637022	-0.1914617108527515	1.6410868279698299	-0.9472074699948655	0.31512742769416974	1.1854986777412424	-1.126424343404852	0.3737958563343408	0.8904214065424747	-1.0968490508398874	0.3736259992979153	0.642461004427262	-0.9926638454200863
43	0.7166666666666667	-0.20914973074023926	0.9793450353936557	-1.0749755009238036	-0.5255816237580654	0.7258907530081041	-0.9230255115419177	-0.7791628197675359	0.4170452327627511	-0.9743615117596777	-0.8277753555767441	0.37117864913832593	-0.8205306773354935	-0.8395088064650058	0.35296505744891904	-0.9091308514083811	-0.7889186248351046	0.38643240736507006	-1.0199090492027412	-0.043961259274660075	0.8634263287532598	-1.1133830827681686	-0.0687357814094014	0.5095244550196313	-0.8947270778027897	-0.01631181231416872	0.1432827137963726	-1.150408280551517	-0.00809694884179807	0.0787911599538563	-0.996040038631855	0.021843419886918583	0.08020648712374638	-1.0329399143866056	-0.012174911883313419	0.11465196720735545	-1.2009243762216328	0.24404970401322054	1.3200262557646667	-1.0028088472596988	0.41422117434369754	1.5002000249259426	-0.9100061568671407	0.3264495256961024	1.3689041614391317	-0.8652522704420859	0.08162112895681109	1.3983892339860533	-1.0644030537013576	-0.17006256587716115	1.4779225835187288	-1.1208300173383063	-0.17735734915728	1.6461092739004495	-0.9284355078855604	0.31199816104808453	1.1819979674037642	-1.128127207389605	0.3755900913953997	0.888142092278773	-1.0952758414701627	0.37988281088555	0.6397170124672616	-0.9928409783594229
44	0.7333333333333333	-0.2158774189705157	0.982173742770294	-1.0835803761951401	-0.5298105637007628	0.7331027981489799	-0.911465355989292	-0.7910199597585644	0.4282971205066919	-0.9621654508513693	-0.8381431641578565	0.387347705382712	-0.7997184412265754	-0.8494809364355063	0.3668900588896325	-0.8936088776261482	-0.8027046879339844	0.40093806105177776	-1.0058162294684858	-0.04840015580939926	0.8648679688365439	-1.1125290350448824	-0.06875120156669329	0.5094303285866709	-0.8944374501654411	-0.015432714122913464	0.1421240655438321	-1.1502242860070049	-0.007101520607402347	0.07845289230500077	-0.997625911832428	0.022871406286275167	0.07946544028864404	-1.0334006904399302	-0.011456671056112474	0.1136463467769078	-1.2011791221558987	0.24655071126860428	1.318543037913052	-0.989404336268641	0.4192593700744935	1.4981830901267035	-0.8959252492779078	0.3273195535401272	1.3648989649539223	-0.854934139135159	0.08412868845301186	1.3976986922078365	-1.0565777369798814	-0.1678940994484677	1.4825124661950715	-1.105106519314187	-0.16326764005268757	1.6500468773048746	-0.9101965850640188	0.3102901257689244	1.1792545806822428	-1.1237099991819948	0.37767465416404095	0.8862021710012138	-1.0933975009195593	0.38596168767365274	0.6377658435282593	-0.9931626174693183
